<svg 
     id="Layer_1"
     data-name="Layer 1"
     xmlns="http://www.w3.org/2000/svg"
     viewBox="0 0 1246.52 521.49"
 >
    <defs>
        <style>
            .cls-1{
                fill:#43753b;
            }
            .cls-2{
                fill:#43753b;
            }
        </style>
        <filter id="f1" x="0" y="0">
          <feGaussianBlur in="SourceGraphic" stdDeviation="15" />
        </filter>
    </defs>
    <path
        class="cls-2"
        d="M807,463s60,46,90,33,79-19,104-16,41,3,54,0,82-24,103-24,64,17,77,0,12-75,12-75-43-72-66-132S1119.61,75.93,1074,81c-27,3-19,82-31,97s-48,32-69,29S907-4,879,0s-29,99-45,105-16,58-13,97-1,200-2,209S807,463,807,463Z"
        />
    <path
          class="cls-1"
          d="M14,452S-5,426,4,399,204,225,224,225s31-54,61-33,64,71,88,123c14.52,31.47,81,75,81,90s28,80,8,88-99,1-120,0-100,4-135,8-95,32-124,15-44-24-71-24S14,452,14,452Z"
      />
</svg>