<svg id="koh_koh" data-name="koh koh" xmlns="http://www.w3.org/2000/svg" viewBox="0 0 1440 1023"><defs><style>.cls-1{fill:#385646;}.cls-2{fill:#577a69;}</style></defs><title>Artboard 2</title><path class="cls-1" d="M332,282s25-93,41-119,45-51,72-16,96,179,96,188,79,197,58,196-60-9-81-9-83,27-90,21-13-36-37-29-86,46-98,30S332,282,332,282Z"/><path class="cls-2" d="M77,498s13,2,40,11,108-10,144-5.5S379,519,389,511s-17-135-9-170-55-133-79-159S248,73,218,79s-87,127-94,190S77,498,77,498Z"/><path class="cls-1" d="M389,511c10-8-17-135-9-170s-55-133-79-159S248,73,218,79c-15.5,3.1,66.94,91.37,114,203C376,386.39,384.17,514.87,389,511Z"/></svg>