<svg id="koh_koh" data-name="koh koh" xmlns="http://www.w3.org/2000/svg" viewBox="0 0 1246.52 521.49"><defs><style>.cls-1{fill:#43753b;}.cls-2{fill:#2b4c3c;}.cls-3{fill:#244033;}.cls-4{fill:#1e362b;}</style></defs><title>mtns01</title><path class="cls-1" d="M955,525s60,46,90,33,79-19,104-16,41,3,54,0,82-24,103-24,64,17,77,0,12-75,12-75-43-72-66-132-61.39-173.07-107-168c-27,3-19,82-31,97s-48,32-69,29-67-211-95-207-29,99-45,105-16,58-13,97-1,200-2,209S955,525,955,525Z" transform="translate(-148.5 -61.94)"/><path class="cls-2" d="M1191,240c-12,15-48,32-69,29s-67-211-95-207c30,46,38,134,53,173,21,28,20,55,34,49C1146,277,1191,240,1191,240Z" transform="translate(-148.5 -61.94)"/><path class="cls-2" d="M1333,443c21,0,37,92,50,75s12-75,12-75-43-72-66-132-61.39-173.07-107-168c-14.53,1.61,55,63,61,142C1310,353.5,1323.3,443,1333,443Z" transform="translate(-148.5 -61.94)"/><path class="cls-2" d="M1045,558c30-13,79-19,104-16s41,3,54,0,82-24,103-24,64,17,77,0c4.37-5.72-78-14-134-4-100,28-58-34-84-34C1124,532,1067,532,1045,558Z" transform="translate(-148.5 -61.94)"/><path class="cls-1" d="M162,514s-19-26-10-53S352,287,372,287s31-54,61-33,64,71,88,123c14.52,31.47,81,75,81,90s28,80,8,88-99,1-120,0-100,4-135,8-95,32-124,15-44-24-71-24S162,514,162,514Z" transform="translate(-148.5 -61.94)"/><path class="cls-3" d="M602,467c0,15,28,80,8,88s-99,1-120,0-100,4-135,8-95,32-124,15-44-24-71-24c36.64-8.74,58,5.58,102,6,61.74.59,147.8-11.58,205-25,34.14-3,91,18,117-3C581,480,602,461.68,602,467Z" transform="translate(-148.5 -61.94)"/><path class="cls-4" d="M539,416c1.59-19.94-41-56-18-39,6.78,14.69,24.88,32,42.25,47.82C583.1,442.89,537,441,539,416Z" transform="translate(-148.5 -61.94)"/></svg>