<svg id="koh_koh" data-name="koh koh" xmlns="http://www.w3.org/2000/svg" xmlns:xlink="http://www.w3.org/1999/xlink" viewBox="0 0 1440 1033.86"><defs><style>.cls-1{fill:#fff;}.cls-2{opacity:0.5;}.cls-3{fill:url(#linear-gradient);}.cls-4{fill:url(#linear-gradient-2);}.cls-5{fill:#2b4c3c;}.cls-6{fill:url(#linear-gradient-3);}</style><linearGradient id="linear-gradient" x1="1167.9" y1="1033.86" x2="1167.9" y2="524.66" gradientUnits="userSpaceOnUse"><stop offset="0" stop-color="#fff" stop-opacity="0"/><stop offset="0.21" stop-color="#f9fbf9" stop-opacity="0.03"/><stop offset="0.39" stop-color="#e8eee7" stop-opacity="0.12"/><stop offset="0.56" stop-color="#cbd9c9" stop-opacity="0.28"/><stop offset="0.73" stop-color="#a2bb9e" stop-opacity="0.49"/><stop offset="0.89" stop-color="#6e9468" stop-opacity="0.77"/><stop offset="1" stop-color="#43753b"/></linearGradient><linearGradient id="linear-gradient-2" x1="1327.55" y1="924.35" x2="1327.55" y2="527.74" gradientUnits="userSpaceOnUse"><stop offset="0.51" stop-color="#fff" stop-opacity="0"/><stop offset="0.62" stop-color="#eff1f0" stop-opacity="0.07"/><stop offset="0.75" stop-color="#c1c9c5" stop-opacity="0.28"/><stop offset="0.89" stop-color="#74867e" stop-opacity="0.63"/><stop offset="1" stop-color="#244033"/></linearGradient><linearGradient id="linear-gradient-3" x1="382.85" y1="869.22" x2="382.85" y2="559.19" gradientUnits="userSpaceOnUse"><stop offset="0" stop-color="#fff" stop-opacity="0"/><stop offset="0.21" stop-color="#f9fbf9" stop-opacity="0.03"/><stop offset="0.39" stop-color="#e8eee7" stop-opacity="0.12"/><stop offset="0.56" stop-color="#ccd9ca" stop-opacity="0.27"/><stop offset="0.73" stop-color="#a3bc9f" stop-opacity="0.49"/><stop offset="0.89" stop-color="#70966a" stop-opacity="0.76"/><stop offset="1" stop-color="#43753b"/></linearGradient></defs><title>sea-reflect</title><rect class="cls-1" width="1440" height="498"/><g class="cls-2"><path class="cls-3" d="M1361.81,525.55a98.13,98.13,0,0,1-12.17-.89c-18.41,1.76-42.69,14.06-57.38,16.3-12.71,1.94-44.39-1.18-70.11-4.13-8.88,2.46-15.84,4.4-19.15,5.16-13,3-29,3-54,0a130.94,130.94,0,0,0-16.75-.74c-12,3.16-29.68,5.08-48.23,5.27-14.16,2.79-27.9,6.65-39,11.47-13.82,6-34-.55-51.77-9.34-25.2,13.6-49,38.38-49,38.38s17.37,40.85,19.71,49.59,30.61,167.3,33.53,206.3,10.77,90.41,27.5,93.92,32.06,97.28,60.34,97,42.35-212.83,62.66-219,58.46,5.23,72.59,18.25,18.15,92.32,45.29,91.21c45.85-1.88,66.73-119.45,80.41-182.23s45.31-140.45,45.31-140.45-7.77-57.49-23.19-72.33A16.37,16.37,0,0,0,1361.81,525.55Z"/><path class="cls-4" d="M1330.28,611c20.76-3.17,22.68-96.53,38.1-81.69s23.19,72.33,23.19,72.33-31.64,77.67-45.31,140.45-34.55,180.35-80.41,182.23c-14.6.6,44.86-70.58,38.86-149.58C1321.07,703,1320.69,612.49,1330.28,611Z"/><path class="cls-5" d="M1361.81,525.55a98.13,98.13,0,0,1-12.17-.89c-18.41,1.76-28.89-8.44-43.64-6.66-58,7-68,18-83.85,18.84-8.88,2.46-15.84,4.4-19.15,5.16-13,3-29,3-54,0a130.94,130.94,0,0,0-16.75-.74c-12,3.16-29.68,5.08-48.23,5.27a225.06,225.06,0,0,0-28.56,7.47c28.73,8.54,68,13,103.16,45.82,25.7-3.93-25.18-58.87,77.9-46.29,55.48-12.52,137-19.19,131.86-24.19A16.37,16.37,0,0,0,1361.81,525.55Z"/></g><g class="cls-2"><path class="cls-6" d="M610,563.37c-20-8-99-1-120,0-14.46.69-56.44-1.47-92.61-4.19-16.34,1.23-31.5,2.57-42.39,3.81-35,4-95,32-124,15-15.07-8.83-26.36-15-37.51-18.81-10.32,3.56-20.52,5.19-33.49,5.19-27,0,2,40,2,40s-19,26-10,53,200,174,220,174,31,54,61,33,64-71,88-123c14.52-31.47,81-75,81-90S630,571.37,610,563.37Z"/><path class="cls-5" d="M193.49,559.19c-10.32,3.56-20.52,5.19-33.49,5.19,17.93,4.28,32.2,3,47.25.59A124.51,124.51,0,0,0,193.49,559.19Z"/><path class="cls-5" d="M610,563.37c-20-8-120-9.37-141-8.37-14.46.69-54,3-71.61,4.19-16.34,1.23-31.5,2.57-42.39,3.81-1.58.18-3.22.41-4.9.69,41.77,4.7,84.09,12,116.9,19.69,34.14,3,91-18,117,3-3,52,18,70.32,18,65C602,636.37,630,571.37,610,563.37Z"/></g></svg>