<svg id="koh_koh" data-name="koh koh" xmlns="http://www.w3.org/2000/svg" viewBox="0 0 1440 1023"><defs><style>.cls-1{fill:#c4f7f7;}.cls-2{fill:#80b7b6;}.cls-3{fill:#f4f3e4;}.cls-4{fill:rgba(255, 255, 255, 0);}</style></defs><title>sea</title><path class="cls-1" d="M0,651s253,48,355,203,483,60,546,0,109-157,175-179,185-56,364-24V498H0Z"/><path class="cls-2" d="M0,498H1440v65.58C1387,576,1358,536,1316,531c-48-5.72-71.37,40.37-141,39-51-1-101.42,30.38-150,24-28.62-3.76-52.21-29.92-70-34-48-11-159-4-195-3s-135,14-165,15-113.64-15.37-168.32-8.69S316,594,265,595,91,541,70,548,0,563.31,0,563.31Z"/><path class="cls-3" d="M0,651s253,48,355,203,483,60,546,0,109-157,175-179,185-56,364-24v372H0Z"/><rect class="cls-4" width="1440" height="498"/></svg>